<svg xmlns="http://www.w3.org/2000/svg" id="svg2817" width="174" height="100" fill="none" version="1.1" viewBox="0 0 174 100">
  <path id="path2799" fill="#fff" d="M10.3.1h23.4C39.5.1 44 4.7 44 10.4v79.3c0 5.7-4.5 10.3-10.2 10.3H10.3C4.6 100 0 95.4 0 89.7V10.4C0 4.7 4.6 0 10.3 0Z"/>
  <path id="path2801" fill="#c80f2e" d="M28 18.4v.3l1.8 1.3c1.9 1.2 4.2 3.3 3.9 10.7.5 1.6.8 4.7 1.3 5.7 1 2 1.6 3.3 2 5.1 0 0 .2 3 .6 3.1 2 .5 1.4.7 1.7 1 .3.4 1.4.4 1.4 1.5l1 1.6V10.5a7.9 7.9 0 0 0-8-8h-7.5c1.2.5 1.9 1 2.3 1.8 1 0 2 2.3.3 5.5.8.5.2 1.3-.4 2.3-.2.2-.3.8-.9.7-.7 1.5-1.5 2.9-2.1 3-.2.2-.3.8 0 1.1.9.4 2 1 2.5 1.5zm7 79h-.1c3.5-2 1.3-6 .7-8.4v-.4c.2-.3-.1-1-.1-1-.5-.4-.6-2.4-.8-3.3-.3-1.4.7-4 .7-4.9 0-.8-.7-2-1.9-3.5-.3-.4-1.1-7.8-1.9-9.7-1-2.6-1.4-2.2-2.7-5.3-1-2.1-.2-5.3-2.4-12.8l.5-.4-2.4-8.3c-.5-1.8-1.6-1.9-1.6-1.9v-.9c.2-.3 2.2-5.6 2.4-5.8 0-.1 3-2.2 3-1.9.3 1.3 1.5 8 2 9.1.5 1.1 2.2 4.4 3 6.4a7 7 0 1 0 8.2 9.5v35.7a7.8 7.8 0 0 1-6.6 7.8z"/>
  <path id="path2803" fill="#1d4289" d="M23.7 2.5c-2.6 1-3 2.1-3 5.7-.5 0-1.4-.4-1 1.8 0 0 0 1.5.7 1.2-.5 3.2-.1 4-2.2 4.2l-1.7.1-.2.3c-2.9.3-4.3 0-6.1 2.5-.7 1-1.5 2.3-2.4 4.2 0 0-.9 2-1.1 3-.9 1.7-2.9 5.5-3.5 8-.2.8-.5 1 0 2.2.8 1.8-.5 2.2 4 2v1.1s-1.2 1-1.5 1.7c-.2.6-1 3.7-.9 5.1 0 3.8 3.2 7 4.1 10.8l2 .3a66 66 0 0 0 7.3 10.7c.3.7 1.6 1.5 2.3 2.4.4.4 2.5 2.6 5.3 4.8a29 29 0 0 0 3.2 2.2s.7 1.4 1 2.6c-1.3 1.1 1.4 3.2 2.2 6.7.1.4-.8.9.5 2 0 5.3-1.7 8 1 9.4H10.2a8 8 0 0 1-7.8-7.9V10.5a8 8 0 0 1 7.8-8h13.5z"/>
  <path id="path2805" fill="#1d4289" fill-rule="evenodd" d="M55.9 2.5v95H66c0-24.5.6-49-.9-73.2L77 97.4h14.8v-95H81.6c-.2 25.3.7 50 2.4 74.6L71.7 2.5H55.9Z" clip-rule="evenodd"/>
  <path id="path2807" fill="#fff" fill-rule="evenodd" d="M53.5 0h20.3l5.7 34.8a904.3 904.3 0 0 1-.3-32.3V0h15v99.8H75l-6.3-39v21.6l-.2 15v2.4h-15V0ZM66 44.7a517.5 517.5 0 0 0-.9-20.3l11.9 73h14.8v-95H81.6A923 923 0 0 0 84 77L71.7 2.5H55.9v95h10.3v-15c0-12.7.1-25.3-.1-37.9z" clip-rule="evenodd"/>
  <path id="path2809" fill="#1d4289" fill-rule="evenodd" d="m144.8 2.4-10 95h12.5l1.6-19.2h8.2l1.7 19.3h12.5l-9.8-95zm8.2 26.9 3.2 37.8H150l3.1-37.8z" clip-rule="evenodd"/>
  <path id="path2811" fill="#fff" fill-rule="evenodd" d="M142.7 0h21L174 99.9h-17.4l-1.7-19.2h-3.7l-1.7 19.2H132L142.6 0Zm6.2 78.2h8.2l1.7 19.2h12.5l-9.8-95h-16.7l-10 95h12.5zm4.1-49-3 37.9h6.3L153 29.3zm0 29.1-.5 6.4h1l-.5-6.3z" clip-rule="evenodd"/>
  <path id="path2813" fill="#1d4289" d="M99.7 2.5v94.9H118c3 0 13.3-2.6 13.3-15.8v-19c0-2 0-8.2-5.5-12 3.5 0 5.5-6.6 5.5-12.6V17.7c0-8-5-15.2-14.9-15.2H99.8ZM111 14.6h5.6c2.5 0 3.4 2.8 3.4 5v22.1c0 3.8-1.3 4-3.8 4H111v-31Zm0 41.5h5.6c2.5 0 3.4 2.8 3.4 5V81c0 2.5-1.3 4.5-3.8 4.5H111z"/>
  <path id="path2815" fill="#fff" fill-rule="evenodd" d="M97.3 0h19.2c5.6 0 10 2.1 12.9 5.5 3 3.4 4.3 7.8 4.3 12.2V38c0 3.3-.5 6.7-1.6 9.5a11.7 11.7 0 0 1-2.1 3.6c3.7 4.3 3.7 9.7 3.7 11.4v19c0 7.4-2.9 12-6.4 14.8a16.2 16.2 0 0 1-9.3 3.5H97.2ZM128 52.7a11.7 11.7 0 0 0-2.3-2c1 0 1.7-.4 2.4-1.2 2-2.2 3-7 3-11.4V17.7c0-8-4.8-15.2-14.7-15.2H99.7v94.9H118c3 0 13.3-2.6 13.3-15.8v-19c0-1.7 0-6.4-3.3-10zM116 83c.6 0 .9-.2 1-.4.2-.3.4-.8.4-1.7V61c0-.8-.1-1.6-.4-2.1a1 1 0 0 0-.3-.4h-3.3V83h2.7zm0 2.4c2.6 0 3.9-2 3.9-4.5V61c0-2.2-.9-5-3.4-5H111v29.3zm.5-68.3h-3.2v26.3h2.8l1.2-.1.1-1.6V19.6c0-.8-.1-1.6-.4-2.1a1 1 0 0 0-.3-.4h-.2zm-5.6-2.5v31.2h5.2c2.5 0 3.8-.3 3.8-4V19.5c0-2.2-.9-5-3.4-5H111Z" clip-rule="evenodd"/>
</svg>
