<?xml version="1.0" encoding="utf-8"?>
<svg xmlns="http://www.w3.org/2000/svg" width="53" height="72" viewBox="0 0 53 72" fill="none">
<g clip-path="url(#clip0_1120_9745)">
<path d="M0.333252 10.3883V61.6018C15.0958 75.1215 36.8236 75.8066 52.3341 61.602L52.3343 49.3727V10.3886C37.2103 -3.46223 15.4568 -3.46308 0.333465 10.3883" fill="#C9D0DC"/>
<path d="M50.8406 11.052C36.9508 -1.66821 15.7165 -1.66821 1.8269 11.052V60.9379C15.7165 73.6586 36.951 73.6586 50.8406 60.9384V11.052Z" fill="#010A10"/>
<path d="M6.02411 59.0048C17.843 68.6708 34.8242 68.67 46.6435 59.0048L46.6431 12.9855C34.8246 3.31926 17.8428 3.31991 6.02369 12.9857L6.02411 59.0048ZM4.3508 59.7956L4.35059 12.195C17.4669 1.19998 35.5082 1.45798 48.3164 12.1948L48.3171 59.7953C35.3663 70.6682 17.3014 70.6684 4.3508 59.7956Z" fill="#107FCB"/>
<path d="M40.1099 22.7194C40.1099 29.9923 34.1535 35.8883 26.806 35.8883C19.4586 35.8883 13.5022 29.9923 13.5022 22.7194C13.5022 15.4465 19.4586 9.55048 26.806 9.55048C34.1535 9.55048 40.1099 15.4465 40.1099 22.7194Z" fill="white"/>
<path d="M30.1911 26.4814H31.5957L31.5247 24.4783L30.1911 26.4814ZM35.527 26.4542H36.9244L36.8568 24.4586L35.527 26.4542ZM37.0392 28.8637H38.5762C36.3459 33.0418 31.9117 35.8886 26.8063 35.8886C19.4589 35.8886 13.5024 29.9925 13.5024 22.7196C13.5024 15.4468 19.4589 9.55072 26.8063 9.55072C34.1541 9.55072 40.1101 15.4468 40.1101 22.7196C40.1101 24.6664 39.6833 26.5146 38.9173 28.1775L38.5327 22.6275H35.0806L34.6732 24.0523H35.2095L33.5064 26.7274L33.2662 22.6273H29.766L29.3671 24.0456L29.9013 24.0521L27.616 27.4864L25.7328 27.4783C25.5357 27.4783 24.7739 27.2974 24.7739 26.3657C24.7739 25.4316 25.6721 24.078 26.5834 24.078L26.967 24.087L26.7671 24.7937H28.4434L29.0453 22.6273H26.4617C24.856 22.6273 23.5585 23.763 23.1484 24.9345L23.8196 22.6273H21.5198L21.1158 24.0523L21.7096 24.0508L21.1115 26.1364L19.6036 22.6273H17.4578L17.0541 24.0523H17.6436L16.3096 28.8639H18.0278C18.0278 28.8639 18.6922 26.478 18.8631 25.8656C19.106 26.445 20.1173 28.8639 20.1173 28.8639H22.0305L22.9082 25.8062C22.8274 26.2701 22.8265 26.7445 22.9054 27.2087C23.0733 28.2099 24.0586 28.8639 25.1317 28.8639H28.6051L29.2054 27.9671H31.6566L31.7063 28.8639H33.872L34.4324 27.9671H36.9395L37.039 28.8639M40.9599 29.9293C40.9599 30.39 40.5813 30.765 40.1155 30.765C39.6497 30.765 39.2712 30.39 39.2712 29.9293C39.2712 29.4602 39.6416 29.0929 40.1155 29.0929C40.5889 29.0929 40.9599 29.4604 40.9599 29.9293ZM40.1155 28.8692C39.5248 28.8692 39.0445 29.3445 39.0445 29.9291C39.0445 30.5137 39.5248 30.9891 40.1155 30.9891C40.7061 30.9891 41.1864 30.5137 41.1864 29.9291C41.1864 29.3349 40.7161 28.8692 40.1155 28.8692Z" fill="#45A5E1"/>
<path d="M40.3889 29.7C40.3889 29.8035 40.2907 29.8731 40.1989 29.8731H39.9208V29.5172H40.1989C40.2905 29.5172 40.3889 29.5869 40.3889 29.7ZM40.6299 29.7C40.6299 29.4602 40.4062 29.3121 40.1989 29.3121H39.6841V30.5507H39.9208V30.0831H40.0717L40.3817 30.5509H40.6683L40.3433 30.0705C40.4452 30.0448 40.6299 29.9426 40.6299 29.7Z" fill="#45A5E1"/>
<mask id="mask0_1120_9745" style="mask-type:luminance" maskUnits="userSpaceOnUse" x="8" y="7" width="37" height="58">
<path d="M26.3332 64.4824C19.8549 64.4824 13.6086 62.4319 8.41699 58.6509V13.3412C13.608 9.56039 19.8554 7.5093 26.3332 7.5093C26.3329 7.5093 26.3338 7.5093 26.3332 7.5093C32.8116 7.5093 39.0581 9.56011 44.2494 13.3412V58.6509C39.0584 62.4317 32.8113 64.4824 26.3335 64.4824H26.3332Z" fill="white"/>
</mask>
<g mask="url(#mask0_1120_9745)">
<path d="M29.9038 47.2592C30.076 47.468 30.2388 47.6951 30.3976 47.9363C30.2388 47.6954 30.076 47.4678 29.9038 47.2592Z" fill="white"/>
</g>
<mask id="mask1_1120_9745" style="mask-type:luminance" maskUnits="userSpaceOnUse" x="8" y="7" width="37" height="58">
<path d="M26.3332 64.4824C19.8549 64.4824 13.6086 62.4319 8.41699 58.6509V13.3412C13.608 9.56039 19.8554 7.5093 26.3332 7.5093C26.3329 7.5093 26.3338 7.5093 26.3332 7.5093C32.8116 7.5093 39.0581 9.56011 44.2494 13.3412V58.6509C39.0584 62.4317 32.8113 64.4824 26.3335 64.4824H26.3332Z" fill="white"/>
</mask>
<g mask="url(#mask1_1120_9745)">
<path d="M30.9292 48.7954C30.9465 48.8242 30.9641 48.8537 30.9815 48.8826C30.9639 48.8535 30.9465 48.8242 30.9292 48.7954Z" fill="white"/>
</g>
<mask id="mask2_1120_9745" style="mask-type:luminance" maskUnits="userSpaceOnUse" x="8" y="7" width="37" height="58">
<path d="M26.3332 64.4824C19.8549 64.4824 13.6086 62.4319 8.41699 58.6509V13.3412C13.608 9.56039 19.8554 7.5093 26.3332 7.5093C26.3329 7.5093 26.3338 7.5093 26.3332 7.5093C32.8116 7.5093 39.0581 9.56011 44.2494 13.3412V58.6509C39.0584 62.4317 32.8113 64.4824 26.3335 64.4824H26.3332Z" fill="white"/>
</mask>
<g mask="url(#mask2_1120_9745)">
<path d="M30.6621 48.3535C30.7374 48.4757 30.8124 48.6002 30.8883 48.7269C30.8127 48.6002 30.7374 48.4757 30.6621 48.3535Z" fill="white"/>
</g>
<mask id="mask3_1120_9745" style="mask-type:luminance" maskUnits="userSpaceOnUse" x="8" y="7" width="37" height="58">
<path d="M26.3332 64.4824C19.8549 64.4824 13.6086 62.4319 8.41699 58.6509V13.3412C13.608 9.56039 19.8554 7.5093 26.3332 7.5093C26.3329 7.5093 26.3338 7.5093 26.3332 7.5093C32.8116 7.5093 39.0581 9.56011 44.2494 13.3412V58.6509C39.0584 62.4317 32.8113 64.4824 26.3335 64.4824H26.3332Z" fill="white"/>
</mask>
<g mask="url(#mask3_1120_9745)">
<path d="M31.0991 49.0795C31.119 49.1125 31.1386 49.1454 31.1588 49.1788C31.1386 49.1456 31.1187 49.1125 31.0991 49.0795Z" fill="white"/>
</g>
<mask id="mask4_1120_9745" style="mask-type:luminance" maskUnits="userSpaceOnUse" x="8" y="7" width="37" height="58">
<path d="M26.3332 64.4824C19.8549 64.4824 13.6086 62.4319 8.41699 58.6509V13.3412C13.608 9.56039 19.8554 7.5093 26.3332 7.5093C26.3329 7.5093 26.3338 7.5093 26.3332 7.5093C32.8116 7.5093 39.0581 9.56011 44.2494 13.3412V58.6509C39.0584 62.4317 32.8113 64.4824 26.3335 64.4824H26.3332Z" fill="white"/>
</mask>
<g mask="url(#mask4_1120_9745)">
<path d="M31.6597 49.9828C31.6705 49.999 31.6813 50.0154 31.6923 50.032L31.6597 49.9828Z" fill="white"/>
</g>
<mask id="mask5_1120_9745" style="mask-type:luminance" maskUnits="userSpaceOnUse" x="8" y="7" width="37" height="58">
<path d="M26.3332 64.4824C19.8549 64.4824 13.6086 62.4319 8.41699 58.6509V13.3412C13.608 9.56039 19.8554 7.5093 26.3332 7.5093C26.3329 7.5093 26.3338 7.5093 26.3332 7.5093C32.8116 7.5093 39.0581 9.56011 44.2494 13.3412V58.6509C39.0584 62.4317 32.8113 64.4824 26.3335 64.4824H26.3332Z" fill="white"/>
</mask>
<g mask="url(#mask5_1120_9745)">
<path d="M21.311 40.3525C21.3262 40.3148 21.3427 40.2776 21.3591 40.2408C21.3427 40.2779 21.3262 40.3148 21.311 40.3525Z" fill="white"/>
</g>
<mask id="mask6_1120_9745" style="mask-type:luminance" maskUnits="userSpaceOnUse" x="8" y="7" width="37" height="58">
<path d="M26.3332 64.4824C19.8549 64.4824 13.6086 62.4319 8.41699 58.6509V13.3412C13.608 9.56039 19.8554 7.5093 26.3332 7.5093C26.3329 7.5093 26.3338 7.5093 26.3332 7.5093C32.8116 7.5093 39.0581 9.56011 44.2494 13.3412V58.6509C39.0584 62.4317 32.8113 64.4824 26.3335 64.4824H26.3332Z" fill="white"/>
</mask>
<g mask="url(#mask6_1120_9745)">
<path d="M21.6934 39.6262C21.7118 39.5985 21.7322 39.5725 21.7513 39.5451C21.7322 39.5725 21.7119 39.5985 21.6934 39.6262Z" fill="white"/>
</g>
<mask id="mask7_1120_9745" style="mask-type:luminance" maskUnits="userSpaceOnUse" x="8" y="7" width="37" height="58">
<path d="M26.3332 64.4824C19.8549 64.4824 13.6086 62.4319 8.41699 58.6509V13.3412C13.608 9.56039 19.8554 7.5093 26.3332 7.5093C26.3329 7.5093 26.3338 7.5093 26.3332 7.5093C32.8116 7.5093 39.0581 9.56011 44.2494 13.3412V58.6509C39.0584 62.4317 32.8113 64.4824 26.3335 64.4824H26.3332Z" fill="white"/>
</mask>
<g mask="url(#mask7_1120_9745)">
<path d="M27.2585 45.9991C27.2806 45.9984 27.3034 45.9966 27.325 45.9964C27.3034 45.9966 27.2804 45.9986 27.2585 45.9991Z" fill="white"/>
</g>
<mask id="mask8_1120_9745" style="mask-type:luminance" maskUnits="userSpaceOnUse" x="8" y="7" width="37" height="58">
<path d="M26.3332 64.4824C19.8549 64.4824 13.6086 62.4319 8.41699 58.6509V13.3412C13.608 9.56039 19.8554 7.5093 26.3332 7.5093C26.3329 7.5093 26.3338 7.5093 26.3332 7.5093C32.8116 7.5093 39.0581 9.56011 44.2494 13.3412V58.6509C39.0584 62.4317 32.8113 64.4824 26.3335 64.4824H26.3332Z" fill="white"/>
</mask>
<g mask="url(#mask8_1120_9745)">
<path d="M26.8726 46.0286C26.9359 46.0212 26.9992 46.0135 27.0603 46.0089C26.9993 46.0135 26.9358 46.0212 26.8726 46.0286Z" fill="white"/>
</g>
<mask id="mask9_1120_9745" style="mask-type:luminance" maskUnits="userSpaceOnUse" x="8" y="7" width="37" height="58">
<path d="M26.3332 64.4824C19.8549 64.4824 13.6086 62.4319 8.41699 58.6509V13.3412C13.608 9.56039 19.8554 7.5093 26.3332 7.5093C26.3329 7.5093 26.3338 7.5093 26.3332 7.5093C32.8116 7.5093 39.0581 9.56011 44.2494 13.3412V58.6509C39.0584 62.4317 32.8113 64.4824 26.3335 64.4824H26.3332Z" fill="white"/>
</mask>
<g mask="url(#mask9_1120_9745)">
<path d="M23.1741 45.5104C23.2026 45.5255 23.2302 45.5424 23.2592 45.5569C23.2622 45.5587 23.2652 45.56 23.2681 45.5618C23.2654 45.5604 23.263 45.5589 23.2602 45.5575C23.2309 45.5426 23.2029 45.5258 23.1741 45.5104Z" fill="white"/>
</g>
<mask id="mask10_1120_9745" style="mask-type:luminance" maskUnits="userSpaceOnUse" x="8" y="7" width="37" height="58">
<path d="M26.3332 64.4824C19.8549 64.4824 13.6086 62.4319 8.41699 58.6509V13.3412C13.608 9.56039 19.8554 7.5093 26.3332 7.5093C26.3329 7.5093 26.3338 7.5093 26.3332 7.5093C32.8116 7.5093 39.0581 9.56011 44.2494 13.3412V58.6509C39.0584 62.4317 32.8113 64.4824 26.3335 64.4824H26.3332Z" fill="white"/>
</mask>
<g mask="url(#mask10_1120_9745)">
<path d="M22.4661 38.7608C22.4996 38.7328 22.5349 38.7065 22.5692 38.6794C22.5349 38.7068 22.4996 38.7325 22.4661 38.7608Z" fill="white"/>
</g>
<mask id="mask11_1120_9745" style="mask-type:luminance" maskUnits="userSpaceOnUse" x="8" y="7" width="37" height="58">
<path d="M26.3332 64.4824C19.8549 64.4824 13.6086 62.4319 8.41699 58.6509V13.3412C13.608 9.56039 19.8554 7.5093 26.3332 7.5093C26.3329 7.5093 26.3338 7.5093 26.3332 7.5093C32.8116 7.5093 39.0581 9.56011 44.2494 13.3412V58.6509C39.0584 62.4317 32.8113 64.4824 26.3335 64.4824H26.3332Z" fill="white"/>
</mask>
<g mask="url(#mask11_1120_9745)">
<path d="M21.0093 41.8873C21.0093 41.8905 21.0088 41.8936 21.0088 41.897C21.0088 42.6982 21.2381 43.4456 21.634 44.0764C21.2381 43.4456 21.0089 42.6982 21.0089 41.897C21.0089 41.8936 21.0093 41.8905 21.0093 41.8873Z" fill="white"/>
</g>
<mask id="mask12_1120_9745" style="mask-type:luminance" maskUnits="userSpaceOnUse" x="8" y="7" width="37" height="58">
<path d="M26.3332 64.4824C19.8549 64.4824 13.6086 62.4319 8.41699 58.6509V13.3412C13.608 9.56039 19.8554 7.5093 26.3332 7.5093C26.3329 7.5093 26.3338 7.5093 26.3332 7.5093C32.8116 7.5093 39.0581 9.56011 44.2494 13.3412V58.6509C39.0584 62.4317 32.8113 64.4824 26.3335 64.4824H26.3332Z" fill="white"/>
</mask>
<g mask="url(#mask12_1120_9745)">
<path d="M31.5142 55.7207C31.4827 55.7398 31.4515 55.7592 31.4199 55.7784C31.4515 55.7592 31.4827 55.7401 31.5142 55.7207Z" fill="white"/>
</g>
<mask id="mask13_1120_9745" style="mask-type:luminance" maskUnits="userSpaceOnUse" x="8" y="7" width="37" height="58">
<path d="M26.3332 64.4824C19.8549 64.4824 13.6086 62.4319 8.41699 58.6509V13.3412C13.608 9.56039 19.8554 7.5093 26.3332 7.5093C26.3329 7.5093 26.3338 7.5093 26.3332 7.5093C32.8116 7.5093 39.0581 9.56011 44.2494 13.3412V58.6509C39.0584 62.4317 32.8113 64.4824 26.3335 64.4824H26.3332Z" fill="white"/>
</mask>
<g mask="url(#mask13_1120_9745)">
<path d="M30.4863 56.3289C30.4667 56.3401 30.4471 56.3515 30.4277 56.3623C30.4471 56.3512 30.4667 56.3401 30.4863 56.3289Z" fill="white"/>
</g>
<mask id="mask14_1120_9745" style="mask-type:luminance" maskUnits="userSpaceOnUse" x="8" y="7" width="37" height="58">
<path d="M26.3332 64.4824C19.8549 64.4824 13.6086 62.4319 8.41699 58.6509V13.3412C13.608 9.56039 19.8554 7.5093 26.3332 7.5093C26.3329 7.5093 26.3338 7.5093 26.3332 7.5093C32.8116 7.5093 39.0581 9.56011 44.2494 13.3412V58.6509C39.0584 62.4317 32.8113 64.4824 26.3335 64.4824H26.3332Z" fill="white"/>
</mask>
<g mask="url(#mask14_1120_9745)">
<path d="M29.9813 56.6136C29.9532 56.6293 29.9251 56.6447 29.8972 56.6601L29.9813 56.6136Z" fill="white"/>
</g>
<mask id="mask15_1120_9745" style="mask-type:luminance" maskUnits="userSpaceOnUse" x="8" y="7" width="37" height="58">
<path d="M26.3332 64.4824C19.8549 64.4824 13.6086 62.4319 8.41699 58.6509V13.3412C13.608 9.56039 19.8554 7.5093 26.3332 7.5093C26.3329 7.5093 26.3338 7.5093 26.3332 7.5093C32.8116 7.5093 39.0581 9.56011 44.2494 13.3412V58.6509C39.0584 62.4317 32.8113 64.4824 26.3335 64.4824H26.3332Z" fill="white"/>
</mask>
<g mask="url(#mask15_1120_9745)">
<path d="M28.6095 43.927C28.9503 43.3287 29.146 42.6359 29.146 41.897C29.146 39.6371 27.3246 37.8051 25.0775 37.8051C24.4936 37.8051 23.9397 37.9311 23.4377 38.1537C22.9243 38.8385 22.6194 39.6905 22.6194 40.6142C22.6194 42.8742 24.4411 44.7061 26.6882 44.7061C26.9613 44.7061 27.2279 44.6778 27.4858 44.6258C29.402 44.6789 31.6924 47.5574 33.6431 50.1002C33.2499 50.278 32.9402 50.4588 32.4277 50.7562C32.4279 50.7566 32.4282 50.757 32.4285 50.7573H32.4282C32.4138 50.7659 32.399 50.7749 32.3845 50.7831C32.3291 50.8152 32.2731 50.8476 32.2169 50.8806C32.1905 50.896 32.1637 50.9117 32.137 50.9274C32.0879 50.956 32.0387 50.9851 31.9887 51.0142C31.966 51.0274 31.9433 51.0408 31.9206 51.0542C31.6606 51.2071 31.391 51.3665 31.114 51.5291L31.0924 51.5419C31.0302 51.5785 30.9674 51.6154 30.9043 51.6522C30.3972 50.6648 28.95 48.0737 26.7835 46.0384C26.7729 46.0398 26.763 46.0404 26.7523 46.0418C26.4108 46.0898 26.1323 46.0878 25.908 46.0618C25.9166 46.0626 25.9246 46.064 25.9334 46.0646C27.9321 48.2614 29.1901 51.0122 29.7216 52.3331C29.2091 52.6213 28.6868 52.9036 28.1675 53.1631L28.1671 53.1633C27.4601 53.5736 26.0571 54.0656 26.0571 54.0656C24.7984 54.4865 23.8621 54.9907 23.1523 55.4938C22.9003 55.6724 22.6816 55.8553 22.4879 56.0416L22.4878 56.0418C22.6814 55.8555 22.9003 55.6727 23.1524 55.4938C20.098 57.9272 23.148 62.158 26.0924 60.1897C26.0924 60.1897 25.2671 61.3622 24.8057 63.1457L23.8721 63.8716C23.8639 63.8167 24.3085 63.9262 24.2998 63.8716L24.1288 63.5277C24.1373 63.5822 24.2916 63.8167 24.2998 63.8716L24.0004 64.6031C24.206 64.9901 22.3757 65.5493 22.3757 65.5493H29.4026C29.4071 65.1093 29.4875 65.9328 29.6248 65.5493C29.6265 63.0916 30.0131 59.7247 29.46 56.901C28.8761 57.2195 28.331 57.509 27.8644 57.7666C28.46 55.1707 33.8036 54.4896 36.0542 51.1859C36.0545 51.1857 36.0548 51.1854 36.0548 51.1854C33.5922 47.524 30.5481 44.8672 28.6095 43.927Z" fill="white"/>
</g>
<mask id="mask16_1120_9745" style="mask-type:luminance" maskUnits="userSpaceOnUse" x="8" y="7" width="37" height="58">
<path d="M26.3332 64.4824C19.8549 64.4824 13.6086 62.4319 8.41699 58.6509V13.3412C13.608 9.56039 19.8554 7.5093 26.3332 7.5093C26.3329 7.5093 26.3338 7.5093 26.3332 7.5093C32.8116 7.5093 39.0581 9.56011 44.2494 13.3412V58.6509C39.0584 62.4317 32.8113 64.4824 26.3335 64.4824H26.3332Z" fill="white"/>
</mask>
<g mask="url(#mask16_1120_9745)">
<path d="M23.0492 38.3534C22.9876 38.3891 22.9267 38.4256 22.8672 38.4645C22.8249 38.4922 22.7833 38.5205 22.742 38.5496C22.6831 38.5914 22.6258 38.6348 22.5693 38.6794C22.535 38.7065 22.4997 38.7328 22.4662 38.7608C22.3838 38.8304 22.3041 38.9032 22.2273 38.9791C22.1967 39.0093 22.168 39.0413 22.1383 39.0725C22.055 39.1598 21.9756 39.2508 21.9002 39.3451C21.8485 39.4102 21.7991 39.4771 21.7514 39.5451C21.7323 39.5725 21.7118 39.5985 21.6934 39.6262C21.6314 39.7201 21.5732 39.8164 21.519 39.915C21.5004 39.9488 21.4837 39.9833 21.466 40.0173C21.4283 40.0905 21.3925 40.165 21.3592 40.2407C21.3427 40.2776 21.3263 40.3147 21.3111 40.3525C21.2733 40.4454 21.239 40.5398 21.2081 40.6353C21.2024 40.6536 21.1951 40.671 21.1896 40.689C21.155 40.8022 21.1263 40.9176 21.1013 41.0344C21.0936 41.0702 21.0876 41.1064 21.0808 41.1427C21.0646 41.2304 21.0512 41.319 21.0405 41.4087C21.0361 41.4467 21.0311 41.4847 21.0277 41.523C21.0168 41.6433 21.0097 41.7644 21.0095 41.8873C21.0095 41.8904 21.009 41.8936 21.009 41.897C21.009 42.6981 21.2382 43.4455 21.6342 44.0763C21.673 44.1381 21.7147 44.1981 21.7568 44.2578C21.7682 44.2738 21.7784 44.2909 21.7901 44.3069C22.0624 44.6816 22.3957 45.0072 22.776 45.2701C22.7773 45.2709 22.7783 45.2717 22.7795 45.2726C22.8429 45.3164 22.9082 45.3569 22.974 45.3972C22.9876 45.4055 23.0006 45.4146 23.0143 45.4229C23.0664 45.4537 23.1205 45.4818 23.1741 45.5103C23.2029 45.5257 23.2309 45.5426 23.2602 45.5574C23.263 45.5589 23.2654 45.5603 23.268 45.5618C23.2814 45.5691 23.2947 45.5763 23.3087 45.5838C25.5019 46.7537 26.8406 48.8348 28.1679 53.163H28.1678C28.687 52.9035 29.2093 52.6213 29.7218 52.333C29.1903 51.0122 27.9323 48.2614 25.9336 46.0645C25.9248 46.064 25.9168 46.0625 25.9082 46.0618C26.1325 46.0878 26.411 46.0898 26.7525 46.0418C26.7633 46.0403 26.7731 46.0398 26.7837 46.0383C26.8118 46.0346 26.8385 46.0326 26.8663 46.0292C26.8685 46.0288 26.8706 46.0288 26.8728 46.0286C26.9361 46.0211 26.9995 46.0134 27.0606 46.0089C27.0608 46.0089 27.0611 46.0086 27.0613 46.0086C27.1273 46.0037 27.191 46.0015 27.2544 45.9995C27.2559 45.9995 27.2572 45.9991 27.2585 45.9991C27.2804 45.9986 27.3034 45.9966 27.325 45.9964H27.326C27.487 45.994 27.6394 46.0026 27.7857 46.0195C27.7945 46.0203 27.8039 46.0206 27.8126 46.0217C27.9469 46.0384 28.0798 46.064 28.2107 46.0983C28.2249 46.1021 28.2397 46.1048 28.2538 46.1089C28.3759 46.1426 28.492 46.1843 28.6039 46.2317C28.6197 46.2385 28.6357 46.2449 28.6513 46.2517C28.7753 46.3075 28.8952 46.3721 29.0102 46.4449C29.1094 46.5075 29.2049 46.5758 29.2963 46.6495C29.3096 46.66 29.323 46.6711 29.336 46.6821C29.4286 46.7585 29.5175 46.8395 29.6022 46.9246C29.6125 46.9348 29.6224 46.9457 29.6326 46.9563C29.7212 47.0467 29.8061 47.1407 29.8872 47.238C29.8929 47.2449 29.8983 47.252 29.904 47.2592C30.0761 47.4678 30.2389 47.6954 30.3977 47.9363C30.4017 47.9428 30.4062 47.9491 30.4105 47.9554C30.4872 48.0729 30.5634 48.1934 30.6392 48.3163C30.6469 48.3285 30.6545 48.3408 30.6622 48.3535C30.7375 48.4757 30.8128 48.6002 30.8884 48.7269C30.902 48.7494 30.9156 48.7725 30.9293 48.7954C30.9466 48.8242 30.9639 48.8534 30.9815 48.8826C31.0205 48.948 31.0594 49.0134 31.0992 49.0794C31.1188 49.1125 31.1387 49.1456 31.1588 49.1788C31.2316 49.3002 31.306 49.4225 31.3818 49.5454C31.3943 49.5659 31.4074 49.5866 31.4202 49.6071C31.498 49.7322 31.5776 49.8577 31.6597 49.9828L31.6924 50.032C31.7776 50.1606 31.8651 50.2891 31.956 50.4165C31.9634 50.4268 31.9711 50.4371 31.9784 50.4474C32.0745 50.5807 32.1733 50.7131 32.2776 50.8437C32.3216 50.8179 32.3623 50.7945 32.4032 50.7708C32.931 50.4642 33.2435 50.2808 33.6433 50.1002C31.6926 47.5574 29.4022 44.6789 27.486 44.6258C27.2281 44.6778 26.9616 44.7061 26.6885 44.7061C24.4413 44.7061 22.6196 42.8741 22.6196 40.6142C22.6196 39.6905 22.9245 38.8385 23.438 38.1537C23.3462 38.1945 23.2556 38.2377 23.1675 38.2848C23.1272 38.3062 23.0887 38.3305 23.0492 38.3534Z" fill="#C9D0DC"/>
</g>
<mask id="mask17_1120_9745" style="mask-type:luminance" maskUnits="userSpaceOnUse" x="8" y="7" width="37" height="58">
<path d="M26.3332 64.4824C19.8549 64.4824 13.6086 62.4319 8.41699 58.6509V13.3412C13.608 9.56039 19.8554 7.5093 26.3332 7.5093C26.3329 7.5093 26.3338 7.5093 26.3332 7.5093C32.8116 7.5093 39.0581 9.56011 44.2494 13.3412V58.6509C39.0584 62.4317 32.8113 64.4824 26.3335 64.4824H26.3332Z" fill="white"/>
</mask>
<g mask="url(#mask17_1120_9745)">
<path d="M31.6921 50.032C31.7774 50.1608 31.8649 50.2892 31.9558 50.4165C31.8649 50.2892 31.7774 50.1606 31.6921 50.032Z" fill="#C9D0DC"/>
</g>
<mask id="mask18_1120_9745" style="mask-type:luminance" maskUnits="userSpaceOnUse" x="8" y="7" width="37" height="58">
<path d="M26.3332 64.4824C19.8549 64.4824 13.6086 62.4319 8.41699 58.6509V13.3412C13.608 9.56039 19.8554 7.5093 26.3332 7.5093C26.3329 7.5093 26.3338 7.5093 26.3332 7.5093C32.8116 7.5093 39.0581 9.56011 44.2494 13.3412V58.6509C39.0584 62.4317 32.8113 64.4824 26.3335 64.4824H26.3332Z" fill="white"/>
</mask>
<g mask="url(#mask18_1120_9745)">
<path d="M30.9814 48.8826C31.0204 48.9476 31.0596 49.0134 31.0991 49.0795C31.0593 49.0134 31.0204 48.948 30.9814 48.8826Z" fill="#C9D0DC"/>
</g>
<mask id="mask19_1120_9745" style="mask-type:luminance" maskUnits="userSpaceOnUse" x="8" y="7" width="37" height="58">
<path d="M26.3332 64.4824C19.8549 64.4824 13.6086 62.4319 8.41699 58.6509V13.3412C13.608 9.56039 19.8554 7.5093 26.3332 7.5093C26.3329 7.5093 26.3338 7.5093 26.3332 7.5093C32.8116 7.5093 39.0581 9.56011 44.2494 13.3412V58.6509C39.0584 62.4317 32.8113 64.4824 26.3335 64.4824H26.3332Z" fill="white"/>
</mask>
<g mask="url(#mask19_1120_9745)">
<path d="M30.8882 48.7269C30.9018 48.7497 30.9155 48.7723 30.9291 48.7954C30.9155 48.7726 30.9018 48.7494 30.8882 48.7269Z" fill="#C9D0DC"/>
</g>
<mask id="mask20_1120_9745" style="mask-type:luminance" maskUnits="userSpaceOnUse" x="8" y="7" width="37" height="58">
<path d="M26.3332 64.4824C19.8549 64.4824 13.6086 62.4319 8.41699 58.6509V13.3412C13.608 9.56039 19.8554 7.5093 26.3332 7.5093C26.3329 7.5093 26.3338 7.5093 26.3332 7.5093C32.8116 7.5093 39.0581 9.56011 44.2494 13.3412V58.6509C39.0584 62.4317 32.8113 64.4824 26.3335 64.4824H26.3332Z" fill="white"/>
</mask>
<g mask="url(#mask20_1120_9745)">
<path d="M27.2544 45.9995C27.1909 46.0015 27.1272 46.0038 27.0613 46.0087C27.0611 46.0087 27.0607 46.0089 27.0605 46.0089C27.1281 46.0038 27.1935 46.0012 27.2585 45.9992C27.2572 45.9992 27.2559 45.9995 27.2544 45.9995Z" fill="#C9D0DC"/>
</g>
<mask id="mask21_1120_9745" style="mask-type:luminance" maskUnits="userSpaceOnUse" x="8" y="7" width="37" height="58">
<path d="M26.3332 64.4824C19.8549 64.4824 13.6086 62.4319 8.41699 58.6509V13.3412C13.608 9.56039 19.8554 7.5093 26.3332 7.5093C26.3329 7.5093 26.3338 7.5093 26.3332 7.5093C32.8116 7.5093 39.0581 9.56011 44.2494 13.3412V58.6509C39.0584 62.4317 32.8113 64.4824 26.3335 64.4824H26.3332Z" fill="white"/>
</mask>
<g mask="url(#mask21_1120_9745)">
<path d="M28.2107 46.0983C28.2249 46.1021 28.2398 46.1049 28.2538 46.1089C28.2397 46.1049 28.2249 46.1021 28.2107 46.0983Z" fill="#C9D0DC"/>
</g>
<mask id="mask22_1120_9745" style="mask-type:luminance" maskUnits="userSpaceOnUse" x="8" y="7" width="37" height="58">
<path d="M26.3332 64.4824C19.8549 64.4824 13.6086 62.4319 8.41699 58.6509V13.3412C13.608 9.56039 19.8554 7.5093 26.3332 7.5093C26.3329 7.5093 26.3338 7.5093 26.3332 7.5093C32.8116 7.5093 39.0581 9.56011 44.2494 13.3412V58.6509C39.0584 62.4317 32.8113 64.4824 26.3335 64.4824H26.3332Z" fill="white"/>
</mask>
<g mask="url(#mask22_1120_9745)">
<path d="M32.2774 50.8437C32.3215 50.8179 32.3615 50.7948 32.403 50.7708C32.3621 50.7945 32.3215 50.8179 32.2774 50.8437Z" fill="#C9D0DC"/>
</g>
<mask id="mask23_1120_9745" style="mask-type:luminance" maskUnits="userSpaceOnUse" x="8" y="7" width="37" height="58">
<path d="M26.3332 64.4824C19.8549 64.4824 13.6086 62.4319 8.41699 58.6509V13.3412C13.608 9.56039 19.8554 7.5093 26.3332 7.5093C26.3329 7.5093 26.3338 7.5093 26.3332 7.5093C32.8116 7.5093 39.0581 9.56011 44.2494 13.3412V58.6509C39.0584 62.4317 32.8113 64.4824 26.3335 64.4824H26.3332Z" fill="white"/>
</mask>
<g mask="url(#mask23_1120_9745)">
<path d="M26.8663 46.0292C26.8385 46.0326 26.8118 46.0346 26.7837 46.0383C26.8141 46.0343 26.843 46.0321 26.8728 46.0286C26.8706 46.0288 26.8685 46.0288 26.8663 46.0292Z" fill="#C9D0DC"/>
</g>
<mask id="mask24_1120_9745" style="mask-type:luminance" maskUnits="userSpaceOnUse" x="8" y="7" width="37" height="58">
<path d="M26.3332 64.4824C19.8549 64.4824 13.6086 62.4319 8.41699 58.6509V13.3412C13.608 9.56039 19.8554 7.5093 26.3332 7.5093C26.3329 7.5093 26.3338 7.5093 26.3332 7.5093C32.8116 7.5093 39.0581 9.56011 44.2494 13.3412V58.6509C39.0584 62.4317 32.8113 64.4824 26.3335 64.4824H26.3332Z" fill="white"/>
</mask>
<g mask="url(#mask24_1120_9745)">
<path d="M23.3086 45.5838C25.5019 46.754 26.8405 48.8348 28.1677 53.163H28.1678C26.8405 48.8348 25.5018 46.7537 23.3086 45.5838Z" fill="#0A2345"/>
</g>
<mask id="mask25_1120_9745" style="mask-type:luminance" maskUnits="userSpaceOnUse" x="8" y="7" width="37" height="58">
<path d="M26.3332 64.4824C19.8549 64.4824 13.6086 62.4319 8.41699 58.6509V13.3412C13.608 9.56039 19.8554 7.5093 26.3332 7.5093C26.3329 7.5093 26.3338 7.5093 26.3332 7.5093C32.8116 7.5093 39.0581 9.56011 44.2494 13.3412V58.6509C39.0584 62.4317 32.8113 64.4824 26.3335 64.4824H26.3332Z" fill="white"/>
</mask>
<g mask="url(#mask25_1120_9745)">
<path d="M21.1011 41.0345C21.1262 40.9176 21.1548 40.8022 21.1894 40.6891C21.1547 40.8022 21.1262 40.9176 21.1011 41.0345Z" fill="#0A2345"/>
</g>
<mask id="mask26_1120_9745" style="mask-type:luminance" maskUnits="userSpaceOnUse" x="8" y="7" width="37" height="58">
<path d="M26.3332 64.4824C19.8549 64.4824 13.6086 62.4319 8.41699 58.6509V13.3412C13.608 9.56039 19.8554 7.5093 26.3332 7.5093C26.3329 7.5093 26.3338 7.5093 26.3332 7.5093C32.8116 7.5093 39.0581 9.56011 44.2494 13.3412V58.6509C39.0584 62.4317 32.8113 64.4824 26.3335 64.4824H26.3332Z" fill="white"/>
</mask>
<g mask="url(#mask26_1120_9745)">
<path d="M21.5188 39.915C21.5733 39.8165 21.6311 39.7199 21.6933 39.6262C21.631 39.7199 21.5733 39.8165 21.5188 39.915Z" fill="#0A2345"/>
</g>
<mask id="mask27_1120_9745" style="mask-type:luminance" maskUnits="userSpaceOnUse" x="8" y="7" width="37" height="58">
<path d="M26.3332 64.4824C19.8549 64.4824 13.6086 62.4319 8.41699 58.6509V13.3412C13.608 9.56039 19.8554 7.5093 26.3332 7.5093C26.3329 7.5093 26.3338 7.5093 26.3332 7.5093C32.8116 7.5093 39.0581 9.56011 44.2494 13.3412V58.6509C39.0584 62.4317 32.8113 64.4824 26.3335 64.4824H26.3332Z" fill="white"/>
</mask>
<g mask="url(#mask27_1120_9745)">
<path d="M21.7566 44.2578C21.7146 44.1981 21.6729 44.1381 21.634 44.0763C21.6729 44.1384 21.7147 44.1981 21.7566 44.2578Z" fill="#0A2345"/>
</g>
<mask id="mask28_1120_9745" style="mask-type:luminance" maskUnits="userSpaceOnUse" x="8" y="7" width="37" height="58">
<path d="M26.3332 64.4824C19.8549 64.4824 13.6086 62.4319 8.41699 58.6509V13.3412C13.608 9.56039 19.8554 7.5093 26.3332 7.5093C26.3329 7.5093 26.3338 7.5093 26.3332 7.5093C32.8116 7.5093 39.0581 9.56011 44.2494 13.3412V58.6509C39.0584 62.4317 32.8113 64.4824 26.3335 64.4824H26.3332Z" fill="white"/>
</mask>
<g mask="url(#mask28_1120_9745)">
<path d="M22.5691 38.6794C22.6257 38.6348 22.683 38.5914 22.7419 38.5497C22.683 38.5911 22.6257 38.6348 22.5691 38.6794Z" fill="#0A2345"/>
</g>
<mask id="mask29_1120_9745" style="mask-type:luminance" maskUnits="userSpaceOnUse" x="8" y="7" width="37" height="58">
<path d="M26.3332 64.4824C19.8549 64.4824 13.6086 62.4319 8.41699 58.6509V13.3412C13.608 9.56039 19.8554 7.5093 26.3332 7.5093C26.3329 7.5093 26.3338 7.5093 26.3332 7.5093C32.8116 7.5093 39.0581 9.56011 44.2494 13.3412V58.6509C39.0584 62.4317 32.8113 64.4824 26.3335 64.4824H26.3332Z" fill="white"/>
</mask>
<g mask="url(#mask29_1120_9745)">
<path d="M21.3591 40.2408C21.3924 40.1651 21.4283 40.0905 21.466 40.0174C21.4282 40.0908 21.3926 40.1653 21.3591 40.2408Z" fill="#0A2345"/>
</g>
<mask id="mask30_1120_9745" style="mask-type:luminance" maskUnits="userSpaceOnUse" x="8" y="7" width="37" height="58">
<path d="M26.3332 64.4824C19.8549 64.4824 13.6086 62.4319 8.41699 58.6509V13.3412C13.608 9.56039 19.8554 7.5093 26.3332 7.5093C26.3329 7.5093 26.3338 7.5093 26.3332 7.5093C32.8116 7.5093 39.0581 9.56011 44.2494 13.3412V58.6509C39.0584 62.4317 32.8113 64.4824 26.3335 64.4824H26.3332Z" fill="white"/>
</mask>
<g mask="url(#mask30_1120_9745)">
<path d="M23.1675 38.2848C23.2556 38.2376 23.3462 38.1945 23.4379 38.1537C23.4385 38.1531 23.4389 38.1522 23.4395 38.1514C23.3469 38.1925 23.2564 38.2371 23.1675 38.2848Z" fill="#0A2345"/>
</g>
<mask id="mask31_1120_9745" style="mask-type:luminance" maskUnits="userSpaceOnUse" x="8" y="7" width="37" height="58">
<path d="M26.3332 64.4824C19.8549 64.4824 13.6086 62.4319 8.41699 58.6509V13.3412C13.608 9.56039 19.8554 7.5093 26.3332 7.5093C26.3329 7.5093 26.3338 7.5093 26.3332 7.5093C32.8116 7.5093 39.0581 9.56011 44.2494 13.3412V58.6509C39.0584 62.4317 32.8113 64.4824 26.3335 64.4824H26.3332Z" fill="white"/>
</mask>
<g mask="url(#mask31_1120_9745)">
<path d="M29.8973 56.6601C29.9252 56.6447 29.9533 56.6293 29.9814 56.6135C30.1286 56.5315 30.2775 56.4478 30.4278 56.3623C30.4471 56.3515 30.4667 56.3401 30.4863 56.3289C30.6278 56.2481 30.7701 56.1655 30.913 56.0818C30.9329 56.0701 30.9528 56.0586 30.9727 56.0469C31.1215 55.9592 31.271 55.8692 31.4198 55.7784C31.4514 55.7592 31.4826 55.7398 31.5142 55.7207C31.6656 55.6275 31.8164 55.5332 31.9667 55.437C31.9792 55.4289 31.9917 55.4207 32.0042 55.4127C32.1451 55.3218 32.2852 55.2295 32.4238 55.1361C32.4517 55.1172 32.4798 55.0987 32.5077 55.0798C32.6508 54.9824 32.7926 54.8832 32.9324 54.783C32.9614 54.7624 32.9898 54.7412 33.0185 54.7207C33.1582 54.6189 33.2963 54.5164 33.4313 54.4118C33.4364 54.4081 33.4415 54.4044 33.4466 54.4004C33.5835 54.2941 33.7165 54.1858 33.8472 54.0766C33.8747 54.0539 33.9026 54.0307 33.9299 54.0076C34.0566 53.8998 34.1804 53.7909 34.3 53.6807C34.3208 53.6616 34.3409 53.6418 34.3614 53.6224C34.4725 53.5184 34.5802 53.4133 34.6836 53.307C34.6983 53.2916 34.714 53.2764 34.7287 53.261C34.8384 53.1467 34.9424 53.031 35.0424 52.9138C35.0637 52.8887 35.085 52.8633 35.1063 52.8378C35.2046 52.7195 35.2989 52.6001 35.3859 52.479C35.3958 52.4656 35.4043 52.4519 35.414 52.4382C35.4944 52.3245 35.5691 52.2096 35.6387 52.0937C35.6518 52.0715 35.666 52.0496 35.6788 52.0273C35.7498 51.9047 35.814 51.7805 35.8717 51.6554C35.8833 51.6299 35.8941 51.6045 35.9052 51.5787C35.962 51.4488 36.0137 51.3182 36.0546 51.1856C36.0546 51.1856 36.0546 51.1859 36.0543 51.1859C33.8037 54.4896 28.4601 55.1707 27.8645 57.7666C28.3312 57.5089 28.8763 57.2194 29.4601 56.9009C29.6062 56.8212 29.7519 56.7409 29.8973 56.6601Z" fill="#C9D0DC"/>
</g>
<mask id="mask32_1120_9745" style="mask-type:luminance" maskUnits="userSpaceOnUse" x="8" y="7" width="37" height="58">
<path d="M26.3332 64.4824C19.8549 64.4824 13.6086 62.4319 8.41699 58.6509V13.3412C13.608 9.56039 19.8554 7.5093 26.3332 7.5093C26.3329 7.5093 26.3338 7.5093 26.3332 7.5093C32.8116 7.5093 39.0581 9.56011 44.2494 13.3412V58.6509C39.0584 62.4317 32.8113 64.4824 26.3335 64.4824H26.3332Z" fill="white"/>
</mask>
<g mask="url(#mask32_1120_9745)">
<path d="M36.055 51.1853C36.055 51.1853 36.0547 51.1853 36.0547 51.1857C36.0138 51.3183 35.9621 51.4488 35.9053 51.5787C35.9621 51.4488 36.0138 51.3179 36.055 51.1853Z" fill="#C9D0DC"/>
</g>
<mask id="mask33_1120_9745" style="mask-type:luminance" maskUnits="userSpaceOnUse" x="8" y="7" width="37" height="58">
<path d="M26.3332 64.4824C19.8549 64.4824 13.6086 62.4319 8.41699 58.6509V13.3412C13.608 9.56039 19.8554 7.5093 26.3332 7.5093C26.3329 7.5093 26.3338 7.5093 26.3332 7.5093C32.8116 7.5093 39.0581 9.56011 44.2494 13.3412V58.6509C39.0584 62.4317 32.8113 64.4824 26.3335 64.4824H26.3332Z" fill="white"/>
</mask>
<g mask="url(#mask33_1120_9745)">
<path d="M31.4198 55.7784C31.271 55.8693 31.1215 55.9592 30.9727 56.0469C31.1215 55.9592 31.271 55.8696 31.4198 55.7784Z" fill="#C9D0DC"/>
</g>
<mask id="mask34_1120_9745" style="mask-type:luminance" maskUnits="userSpaceOnUse" x="8" y="7" width="37" height="58">
<path d="M26.3332 64.4824C19.8549 64.4824 13.6086 62.4319 8.41699 58.6509V13.3412C13.608 9.56039 19.8554 7.5093 26.3332 7.5093C26.3329 7.5093 26.3338 7.5093 26.3332 7.5093C32.8116 7.5093 39.0581 9.56011 44.2494 13.3412V58.6509C39.0584 62.4317 32.8113 64.4824 26.3335 64.4824H26.3332Z" fill="white"/>
</mask>
<g mask="url(#mask34_1120_9745)">
<path d="M18.9294 50.4086C18.9188 50.374 18.9066 50.3388 18.8972 50.3046C18.9068 50.3388 18.9188 50.374 18.9294 50.4086Z" fill="white"/>
</g>
<mask id="mask35_1120_9745" style="mask-type:luminance" maskUnits="userSpaceOnUse" x="8" y="7" width="37" height="58">
<path d="M26.3332 64.4824C19.8549 64.4824 13.6086 62.4319 8.41699 58.6509V13.3412C13.608 9.56039 19.8554 7.5093 26.3332 7.5093C26.3329 7.5093 26.3338 7.5093 26.3332 7.5093C32.8116 7.5093 39.0581 9.56011 44.2494 13.3412V58.6509C39.0584 62.4317 32.8113 64.4824 26.3335 64.4824H26.3332Z" fill="white"/>
</mask>
<g mask="url(#mask35_1120_9745)">
<path d="M18.8357 50.0408C18.8253 49.9866 18.8177 49.9334 18.8103 49.88C18.8179 49.9334 18.8251 49.9866 18.8357 50.0408Z" fill="white"/>
</g>
<mask id="mask36_1120_9745" style="mask-type:luminance" maskUnits="userSpaceOnUse" x="8" y="7" width="37" height="58">
<path d="M26.3332 64.4824C19.8549 64.4824 13.6086 62.4319 8.41699 58.6509V13.3412C13.608 9.56039 19.8554 7.5093 26.3332 7.5093C26.3329 7.5093 26.3338 7.5093 26.3332 7.5093C32.8116 7.5093 39.0581 9.56011 44.2494 13.3412V58.6509C39.0584 62.4317 32.8113 64.4824 26.3335 64.4824H26.3332Z" fill="white"/>
</mask>
<g mask="url(#mask36_1120_9745)">
<path d="M24.42 53.6307C24.4069 53.6572 24.3925 53.6804 24.3784 53.7041C24.3926 53.6804 24.4068 53.6572 24.42 53.6307Z" fill="white"/>
</g>
<mask id="mask37_1120_9745" style="mask-type:luminance" maskUnits="userSpaceOnUse" x="8" y="7" width="37" height="58">
<path d="M26.3332 64.4824C19.8549 64.4824 13.6086 62.4319 8.41699 58.6509V13.3412C13.608 9.56039 19.8554 7.5093 26.3332 7.5093C26.3329 7.5093 26.3338 7.5093 26.3332 7.5093C32.8116 7.5093 39.0581 9.56011 44.2494 13.3412V58.6509C39.0584 62.4317 32.8113 64.4824 26.3335 64.4824H26.3332Z" fill="white"/>
</mask>
<g mask="url(#mask37_1120_9745)">
<path d="M24.5725 53.1493C24.5391 53.3199 24.4932 53.4682 24.4368 53.5924C24.4937 53.4688 24.539 53.3199 24.5725 53.1493Z" fill="white"/>
</g>
<mask id="mask38_1120_9745" style="mask-type:luminance" maskUnits="userSpaceOnUse" x="8" y="7" width="37" height="58">
<path d="M26.3332 64.4824C19.8549 64.4824 13.6086 62.4319 8.41699 58.6509V13.3412C13.608 9.56039 19.8554 7.5093 26.3332 7.5093C26.3329 7.5093 26.3338 7.5093 26.3332 7.5093C32.8116 7.5093 39.0581 9.56011 44.2494 13.3412V58.6509C39.0584 62.4317 32.8113 64.4824 26.3335 64.4824H26.3332Z" fill="white"/>
</mask>
<g mask="url(#mask38_1120_9745)">
<path d="M19.0442 50.7336C19.0304 50.6994 19.0178 50.6657 19.0051 50.632C19.0179 50.6657 19.0304 50.6994 19.0442 50.7336Z" fill="white"/>
</g>
<mask id="mask39_1120_9745" style="mask-type:luminance" maskUnits="userSpaceOnUse" x="8" y="7" width="37" height="58">
<path d="M26.3332 64.4824C19.8549 64.4824 13.6086 62.4319 8.41699 58.6509V13.3412C13.608 9.56039 19.8554 7.5093 26.3332 7.5093C26.3329 7.5093 26.3338 7.5093 26.3332 7.5093C32.8116 7.5093 39.0581 9.56011 44.2494 13.3412V58.6509C39.0584 62.4317 32.8113 64.4824 26.3335 64.4824H26.3332Z" fill="white"/>
</mask>
<g mask="url(#mask39_1120_9745)">
<path d="M24.2366 53.8801C24.2252 53.8902 24.214 53.9013 24.2021 53.9102C24.214 53.9013 24.2251 53.8902 24.2366 53.8801Z" fill="white"/>
</g>
<mask id="mask40_1120_9745" style="mask-type:luminance" maskUnits="userSpaceOnUse" x="8" y="7" width="37" height="58">
<path d="M26.3332 64.4824C19.8549 64.4824 13.6086 62.4319 8.41699 58.6509V13.3412C13.608 9.56039 19.8554 7.5093 26.3332 7.5093C26.3329 7.5093 26.3338 7.5093 26.3332 7.5093C32.8116 7.5093 39.0581 9.56011 44.2494 13.3412V58.6509C39.0584 62.4317 32.8113 64.4824 26.3335 64.4824H26.3332Z" fill="white"/>
</mask>
<g mask="url(#mask40_1120_9745)">
<path d="M18.7974 49.7754C18.7753 49.5623 18.7758 49.3583 18.7988 49.166C18.8599 49.482 18.9781 49.8152 19.1709 50.1637C20.3879 52.3628 23.3186 53.1393 24.6056 52.947C24.5971 53.0114 24.5868 53.0755 24.5746 53.1393C24.7332 52.3173 24.6175 51.0148 24.1467 49.7234C23.4239 47.7398 21.8248 46.6972 20.4872 47.1521C19.456 47.5032 18.6553 48.4434 18.7974 49.7754Z" fill="white"/>
</g>
<mask id="mask41_1120_9745" style="mask-type:luminance" maskUnits="userSpaceOnUse" x="8" y="7" width="37" height="58">
<path d="M26.3332 64.4824C19.8549 64.4824 13.6086 62.4319 8.41699 58.6509V13.3412C13.608 9.56039 19.8554 7.5093 26.3332 7.5093C26.3329 7.5093 26.3338 7.5093 26.3332 7.5093C32.8116 7.5093 39.0581 9.56011 44.2494 13.3412V58.6509C39.0584 62.4317 32.8113 64.4824 26.3335 64.4824H26.3332Z" fill="white"/>
</mask>
<g mask="url(#mask41_1120_9745)">
<path d="M24.4367 53.5924C24.4309 53.605 24.4259 53.6187 24.4199 53.6307C24.4258 53.6187 24.431 53.605 24.4367 53.5924Z" fill="#C9D0DC"/>
</g>
<mask id="mask42_1120_9745" style="mask-type:luminance" maskUnits="userSpaceOnUse" x="8" y="7" width="37" height="58">
<path d="M26.3332 64.4824C19.8549 64.4824 13.6086 62.4319 8.41699 58.6509V13.3412C13.608 9.56039 19.8554 7.5093 26.3332 7.5093C26.3329 7.5093 26.3338 7.5093 26.3332 7.5093C32.8116 7.5093 39.0581 9.56011 44.2494 13.3412V58.6509C39.0584 62.4317 32.8113 64.4824 26.3335 64.4824H26.3332Z" fill="white"/>
</mask>
<g mask="url(#mask42_1120_9745)">
<path d="M24.3784 53.7041C24.3647 53.7268 24.351 53.7493 24.3364 53.7693C24.351 53.749 24.3647 53.727 24.3784 53.7041Z" fill="#C9D0DC"/>
</g>
<mask id="mask43_1120_9745" style="mask-type:luminance" maskUnits="userSpaceOnUse" x="8" y="7" width="37" height="58">
<path d="M26.3332 64.4824C19.8549 64.4824 13.6086 62.4319 8.41699 58.6509V13.3412C13.608 9.56039 19.8554 7.5093 26.3332 7.5093C26.3329 7.5093 26.3338 7.5093 26.3332 7.5093C32.8116 7.5093 39.0581 9.56011 44.2494 13.3412V58.6509C39.0584 62.4317 32.8113 64.4824 26.3335 64.4824H26.3332Z" fill="white"/>
</mask>
<g mask="url(#mask43_1120_9745)">
<path d="M24.2968 53.8193C24.2781 53.841 24.2579 53.8613 24.2363 53.8801C24.2572 53.8618 24.2775 53.8422 24.2968 53.8193Z" fill="#C9D0DC"/>
</g>
<mask id="mask44_1120_9745" style="mask-type:luminance" maskUnits="userSpaceOnUse" x="8" y="7" width="37" height="58">
<path d="M26.3332 64.4824C19.8549 64.4824 13.6086 62.4319 8.41699 58.6509V13.3412C13.608 9.56039 19.8554 7.5093 26.3332 7.5093C26.3329 7.5093 26.3338 7.5093 26.3332 7.5093C32.8116 7.5093 39.0581 9.56011 44.2494 13.3412V58.6509C39.0584 62.4317 32.8113 64.4824 26.3335 64.4824H26.3332Z" fill="white"/>
</mask>
<g mask="url(#mask44_1120_9745)">
<path d="M19.1893 51.0599C19.1343 50.949 19.0876 50.8408 19.0442 50.7337C19.0875 50.8408 19.1343 50.949 19.1893 51.0599Z" fill="#C9D0DC"/>
</g>
<mask id="mask45_1120_9745" style="mask-type:luminance" maskUnits="userSpaceOnUse" x="8" y="7" width="37" height="58">
<path d="M26.3332 64.4824C19.8549 64.4824 13.6086 62.4319 8.41699 58.6509V13.3412C13.608 9.56039 19.8554 7.5093 26.3332 7.5093C26.3329 7.5093 26.3338 7.5093 26.3332 7.5093C32.8116 7.5093 39.0581 9.56011 44.2494 13.3412V58.6509C39.0584 62.4317 32.8113 64.4824 26.3335 64.4824H26.3332Z" fill="white"/>
</mask>
<g mask="url(#mask45_1120_9745)">
<path d="M24.202 53.9101C24.1679 53.935 24.1325 53.9564 24.0947 53.9702C24.1325 53.9564 24.168 53.935 24.202 53.9101Z" fill="#C9D0DC"/>
</g>
<mask id="mask46_1120_9745" style="mask-type:luminance" maskUnits="userSpaceOnUse" x="8" y="7" width="37" height="58">
<path d="M26.3332 64.4824C19.8549 64.4824 13.6086 62.4319 8.41699 58.6509V13.3412C13.608 9.56039 19.8554 7.5093 26.3332 7.5093C26.3329 7.5093 26.3338 7.5093 26.3332 7.5093C32.8116 7.5093 39.0581 9.56011 44.2494 13.3412V58.6509C39.0584 62.4317 32.8113 64.4824 26.3335 64.4824H26.3332Z" fill="white"/>
</mask>
<g mask="url(#mask46_1120_9745)">
<path d="M19.1707 50.1637C18.9779 49.8151 18.8597 49.482 18.7986 49.1659C18.7757 49.3582 18.7751 49.5622 18.7972 49.7754C18.801 49.8099 18.8053 49.8448 18.8103 49.88C18.8177 49.9333 18.8253 49.9866 18.8357 50.0408C18.8527 50.1295 18.8732 50.2175 18.8972 50.3045C18.9066 50.3388 18.9187 50.3739 18.9294 50.4085C18.952 50.4822 18.977 50.5565 19.0051 50.632C19.0178 50.6657 19.0305 50.6994 19.0442 50.7336C19.0876 50.8408 19.1343 50.949 19.1893 51.0598C20.3826 53.4641 23.2001 54.3001 24.0946 53.9701C24.1324 53.9564 24.1678 53.935 24.2019 53.9101C24.2138 53.9013 24.225 53.8901 24.2364 53.8801C24.2579 53.8613 24.2782 53.841 24.2968 53.8193C24.3107 53.8032 24.3239 53.7865 24.3364 53.7693C24.3509 53.7493 24.3647 53.7268 24.3783 53.7041C24.3924 53.6804 24.4068 53.6572 24.4199 53.6307C24.4259 53.6187 24.4309 53.605 24.4367 53.5924C24.4932 53.4682 24.539 53.3198 24.5724 53.1493L24.5744 53.1393C24.5862 53.0775 24.5966 53.0136 24.6054 52.947C23.3184 53.1393 20.3877 52.3627 19.1707 50.1637Z" fill="#C9D0DC"/>
</g>
<mask id="mask47_1120_9745" style="mask-type:luminance" maskUnits="userSpaceOnUse" x="8" y="7" width="37" height="58">
<path d="M26.3332 64.4824C19.8549 64.4824 13.6086 62.4319 8.41699 58.6509V13.3412C13.608 9.56039 19.8554 7.5093 26.3332 7.5093C26.3329 7.5093 26.3338 7.5093 26.3332 7.5093C32.8116 7.5093 39.0581 9.56011 44.2494 13.3412V58.6509C39.0584 62.4317 32.8113 64.4824 26.3335 64.4824H26.3332Z" fill="white"/>
</mask>
<g mask="url(#mask47_1120_9745)">
<path d="M23.1526 55.4938C20.0457 57.6963 21.2319 62.594 22.3758 65.5493H24.5526C24.6055 63.8817 26.0925 60.1897 26.0925 60.1897C23.1481 62.1579 20.0982 57.9272 23.1526 55.4938Z" fill="#C9D0DC"/>
</g>
</g>
<defs>
<clipPath id="clip0_1120_9745">
<rect width="52" height="72" fill="white" transform="translate(0.333252)"/>
</clipPath>
</defs>
</svg>