<?xml version="1.0" encoding="utf-8"?>
<svg xmlns="http://www.w3.org/2000/svg" xmlns:cc="http://creativecommons.org/ns#" xmlns:dc="http://purl.org/dc/elements/1.1/" xmlns:rdf="http://www.w3.org/1999/02/22-rdf-syntax-ns#" xmlns:xlink="http://www.w3.org/1999/xlink" height="150.24" viewBox="0 0 200.75999 150.24374" width="200.76" version="1.1">
  <g transform="matrix(1.25 0 0 -1.25 -563.4 643.8)">
    <g>
      <path d="m556.11 410.78 9.812-0.001-4.653-15.085h-75.114l-4.125 88.603-30.037 29.192h158.21l-7.822-29.184-6.378-5.031-39.891-68.494z" fill="#fff"/>
      <path d="m18.309 9.0898l27.875 26.851 4.939 106.09h65.517l59.47-102.1 7.17-5.657 6.75-25.183-59.3-0.0002-25.03 42.767-2.12-42.767-85.271-0.0002zm107.32 124.49l-0.58 1.38h1.82l-2.94 6.96h1.68l2.94-6.96h1.82l0.58-1.38h-5.32zm6.08 0l-3.51 8.34h1.53l2.81-6.66h0.03l-1.33 6.66h1.31l4.29-6.66h0.02l-2.81 6.66h1.55l3.51-8.34h-2.48l-3.69 5.88h-0.02l1.29-5.88h-2.5z" transform="matrix(.8 0 0 -.8 450.72 515.04)" fill="#04173c"/>
      <g style="">
        <path d="m588.66 497.94h-28.036l-33.656-58.343-2.837 58.343-36.059-0.033 9.427-8.152 3.647-78.359h36.531l45.636 78.359 4.628 3.65 0.719 4.535z" fill="#f89c10"/>
        <path d="m91.762 21.373l-15.801 12.434 3.76 73.663 15.593-13.2-3.552-72.897zm80.658 0.002l-23.48 13.826-47.37 80.249h-20.408l-18.131 14.1h45.659l57.05-97.945 5.78-4.562 0.9-5.668z" transform="matrix(.8 0 0 -.8 450.72 515.04)" fill="#f05023"/>
      </g>
      <g style="">
        <path d="m572.48 488.43-24.007-14.843 1.994-23.513-16.613 14.448-24.007-14.795 13.426 24.078-16.531 14.627 24.787 0.083 13.429 23.767 2.194-23.767 25.328-0.085z" fill="#04173c"/>
        <path d="m542.55 476.55 1.108-13.066-9.23 8.028-9.081-5.596 5.077 9.105-8.821 7.805 13.231 0.046 6.157 10.896 1.005-10.891 10.638-0.036-10.084-6.291z" fill="#016a35"/>
      </g>
    </g>
  </g>
</svg>