<?xml version="1.0" encoding="utf-8"?>
<svg xmlns="http://www.w3.org/2000/svg" id="Layer_1" data-name="Layer 1" viewBox="0 0 151.46 136">
  <defs>
    <style>.cls-1{fill:#4f2d7f;}</style>
  </defs>
  <path class="cls-1" d="M141.64,67.77a20.59,20.59,0,0,1-2.26-5.22,3.87,3.87,0,0,0-.76-1.77,5.91,5.91,0,0,1-.82-1.55,15.11,15.11,0,0,1-.89-3.88l-.35-19.08v-.38l-.3-.24a8,8,0,0,0-2.69-1.26,7.78,7.78,0,0,0-1.95-.25,5.76,5.76,0,0,1-2.05-.34,10.68,10.68,0,0,0-1.81-.54V19.18H82.48V2.78h-41v16.4H31.8V51.5h-28l.31,1a28.88,28.88,0,0,0,3.72,7.85A43,43,0,0,1,10,64.48c.35.7.66,1.3.85,1.65a22.14,22.14,0,0,0,2.69,3,32.55,32.55,0,0,1,3.14,3.5A9,9,0,0,0,20,76c.78.44,2.1,2.58,2.55,3.92a6.37,6.37,0,0,0,.78,1.5,2.49,2.49,0,0,1,.6,1.92c-.22,1.65,1.66,3.62,4,5.83.44.42.82.79,1.06,1.06A17.14,17.14,0,0,0,34,94.11l.76.32a12.72,12.72,0,0,1,3.36,1.76,5.77,5.77,0,0,0,2.14,1.21,6.27,6.27,0,0,1,1,.44c.23.15.49.36.74.56a3.4,3.4,0,0,0,2,1,1.5,1.5,0,0,0,.93-.32l.07,0a12.38,12.38,0,0,0,1.25-.85c.34-.21.67-.4,1-.57a12.43,12.43,0,0,0,1.41-.88,7.14,7.14,0,0,0,1.65-2.34A6.61,6.61,0,0,1,51,93.21a8,8,0,0,0,1.22-2,6.44,6.44,0,0,1,1.29-2,2.14,2.14,0,0,1,1.1-.46,1.73,1.73,0,0,1,1.11.55c.81.75,1.13.89,1.57.94,0,0,.15,0,.64.38a10.56,10.56,0,0,1,1,.81v26h18.3l-.88.08a3.1,3.1,0,0,1,0,.61c-.22,1.83,1.41,3.3,2.39,4.17.2.18.47.42.55.52.42.92,2.63,2.67,3.69,3.3.29.18.62.38,1,.6a23.92,23.92,0,0,0,3.32,1.84c.43.19.8.32,1.13.43a3.46,3.46,0,0,1,1.56.85,4.52,4.52,0,0,0,3.12,1.3,3.92,3.92,0,0,0,1.52-.3.8.8,0,0,1,.34-.07,3.88,3.88,0,0,1,1.84.87,5.83,5.83,0,0,0,1,.56,4.72,4.72,0,0,0,1.88.25h.57a9.12,9.12,0,0,1,1.48.09,3.63,3.63,0,0,0,.67.06,10.67,10.67,0,0,0,3.19-.7c.31-.1.6-.2.83-.26,3.28-.87,4.38-2.37,4.49-2.54l.25-.37-.18-.41s-.53-1.21-1-2.65a11.65,11.65,0,0,1-.37-1.74,8.14,8.14,0,0,0-.61-2.26c-.79-1.73-2-5.41-1.55-6.61a18.52,18.52,0,0,0,.59-2.34,13.09,13.09,0,0,1,1.17-3.78,11.87,11.87,0,0,1,3.51-3.44c.44-.18.82-.66,1.58-1.66a9.88,9.88,0,0,1,1.67-1.87,3.17,3.17,0,0,0,1.44-.9,5.81,5.81,0,0,1,1.67-1.15,18.78,18.78,0,0,0,4.6-3.47c1.92-1.92,3.59-3.15,4-3.19.86,0,1.76-.74,3.15-1.94a10.35,10.35,0,0,1,1.54-1.21c.42-.19,1-.54,1.7-.94A14.48,14.48,0,0,1,137,87.75c1.49-.16,1.67-.72,1.78-2l0-.35A5,5,0,0,1,140,82.69c.54-.74.41-2,.27-3.4a14.66,14.66,0,0,1-.12-2.22,6.58,6.58,0,0,1,.9-2.51,9.08,9.08,0,0,0,.73-1.7C142.08,71.58,142.67,69.43,141.64,67.77ZM127.75,34.09a9.47,9.47,0,0,1,1.51.46c1.51.61,2.68.22,4.09.62.22.06.42.13.62.2l.18.07a3,3,0,0,1,.36.14l.16.08.31.15.11.06.31.18h0l-4.26,4.08-.15-.08-.16-.07-.12-.06-.34-.13-.11,0a9.7,9.7,0,0,0-1-.3l-.15,0c-.21-.05-.43-.1-.67-.14l-.65-.09Zm-.48-14.43h0ZM87.92,40.39l3.7,4.39V91.59l-3.69,3.64-.4.4-.41.4V39.59H106V47h16.44V25.16l.41-.4.4-.41,3.7-3.72V51.56l-3.7-3.71H105.18V40.39Zm4.33,51.85h6l-3.75,3.7-.32.31-.09.09-.41.41h-6l.41-.41h0l.41-.4,3.74-3.7ZM81.06,3.59l-4,4H46.12l-3.79-4Zm.61.53V19.18h-4v-11ZM76.81,8.4V19.18H46.91V8.4ZM4.9,52.31H41.71l4.38,3.88h-34l0,.12ZM58.46,84a1.87,1.87,0,0,1-1-.35,3.12,3.12,0,0,0-1.77-.38,20.09,20.09,0,0,0-2.85.28c-.5.07-.94.14-1.14.14a3.81,3.81,0,0,0-2.22,1.2c-.21.17-.42.35-.63.51-.71.52-1.11,1.8-1.51,3-.16.5-.31,1-.47,1.36a6.17,6.17,0,0,1-3.26,2.68,3.46,3.46,0,0,1-2.37-1.29,11.83,11.83,0,0,0-3.45-1.86l-.7-.29a14.53,14.53,0,0,1-4.24-3.27l-.55-.59c-1.1-1.15-2.94-3.09-2.78-4.29a3.33,3.33,0,0,0-.73-2.54,4.78,4.78,0,0,1-.59-1.12c-.62-1.86-1.34-3.67-2.36-4.24a6.86,6.86,0,0,1-2.32-2.68,24.7,24.7,0,0,0-3.32-3.45,21,21,0,0,1-2.46-2.5l-.1-.18a22.91,22.91,0,0,0-2.36-3.7,11.43,11.43,0,0,1-2-3.46H46.91V52.29H58V44.91H66.2V91a25.76,25.76,0,0,0-3.34-3.4,5.14,5.14,0,0,1-1.23-1.29,8.73,8.73,0,0,0-1.23-1.4A2.9,2.9,0,0,0,58.46,84Zm19.75,29H63.46V96l-3.7-3.7H67l3.7,3.7V40.39H53.51v7.46H36.31V23.7l-3.7-3.62L32.52,20H126.3l-3.69,3.7-.4.41-.41.4H37.12V47H52.7V39.59H71.52V96.8H64.27v15.38h30.1V97.33l.4-.4.41-.4,3.7-3.65v23.81l-3.7-3.7Zm53.55-28.35-.36.09-.09,0a3.22,3.22,0,0,0-.42.16h0l-.46.23,0,0-.45.24-.13.07-.24.14-.19.11-.09,0-.05,0-.58.34c-.58.34-1.12.66-1.45.81a8.8,8.8,0,0,0-1.7,1.29c-.69.59-1.72,1.49-2.15,1.49-1.13,0-3.54,2.29-4.52,3.27a15.81,15.81,0,0,1-3.9,3A12.61,12.61,0,0,0,113,97.11a4.21,4.21,0,0,1-1.24.68c-.6.15-1.22.94-2.12,2.13a7.77,7.77,0,0,1-.94,1.14,11.7,11.7,0,0,0-3.78,3.64,39.63,39.63,0,0,0-2.75,5.83c-.55,1.54-.7,5.59-.1,6.92a3.65,3.65,0,0,1,.27,1.38,4.14,4.14,0,0,0,.63,2.26,20.69,20.69,0,0,1,1.61,4.85,4.56,4.56,0,0,1-1.64.94,6.9,6.9,0,0,1-3.28,0,6,6,0,0,1-2-.84,5.9,5.9,0,0,0-.82-.43l-.12-.06a4.39,4.39,0,0,0-1.77-.45,3.48,3.48,0,0,0-1.35.28,2,2,0,0,1-2.49-.67,7.87,7.87,0,0,0-2.85-1.93A20.11,20.11,0,0,1,85.3,121c-.51-.35-1-.68-1.36-.91a5.8,5.8,0,0,1-1.9-2.51l0-.07H99.69V91.43H92.43V44.91h8.24v7.45h27.08V40l.52.07a8.13,8.13,0,0,1,2.6.82l.32,15.19a14.14,14.14,0,0,0,.89,3.92A6.82,6.82,0,0,0,133,61.7a2.43,2.43,0,0,1,.5,1.18A20.33,20.33,0,0,0,135.7,68c.68,1.1.24,2.71,0,3.77a6.55,6.55,0,0,1-.59,1.33,6.89,6.89,0,0,0-.94,2.76,13.16,13.16,0,0,0,.11,2.23,5.23,5.23,0,0,1,0,2.34,5.62,5.62,0,0,0-1.27,3C132.84,84.53,132.63,84.55,131.76,84.64Zm9.19-12c-.35,1.3-1.53,2.6-1.65,4.37s.59,4.37,0,5.2A5.64,5.64,0,0,0,138,85.3c0,.21,0,.38-.05.54s0,.13,0,.18,0,.11,0,.15,0,.13,0,.18l0,.11a.56.56,0,0,1,0,.12.21.21,0,0,1,0,.06s0,0-.06.07a.12.12,0,0,1-.05.05.61.61,0,0,1-.14.07l-5.12-1.47h0l.26-.06,0,0a1.37,1.37,0,0,0,.53-.32l.09-.1.08-.12.09-.16a.88.88,0,0,0,.05-.15,1.35,1.35,0,0,0,.08-.24l0-.14a3.4,3.4,0,0,0,.07-.49,4.89,4.89,0,0,1,1.12-2.62c.42-.58.31-1.65.18-2.89a12.78,12.78,0,0,1-.1-2.09,6.17,6.17,0,0,1,.85-2.45,7.66,7.66,0,0,0,.65-1.49c.33-1.19.82-3,0-4.4a19.24,19.24,0,0,1-2.13-4.91,3.18,3.18,0,0,0-.63-1.49,5.41,5.41,0,0,1-.79-1.5,13.51,13.51,0,0,1-.84-3.66l-.33-15.31h0l4.09-3.92h0l.35,18.55a15,15,0,0,0,.94,4.14c.83,2.13,1.18,1.54,1.54,3.2A21.44,21.44,0,0,0,141,68.19C141.78,69.53,141.31,71.34,141,72.65Z"/>
</svg>